<svg viewBox="0 0 54 54" fill="none" xmlns="http://www.w3.org/2000/svg">
<g id="Frame 18758">
<path d="M0 14C0 6.26802 6.26801 0 14 0H40C47.732 0 54 6.26801 54 14V40C54 47.732 47.732 54 40 54H14C6.26802 54 0 47.732 0 40V14Z" fill="var(--fill-0, black)" fill-opacity="0.01"/>
<path id="Vector" d="M31.3403 17.6883H17.0067L17.9252 16.7259C18.7323 15.8801 18.7323 14.4801 17.9252 13.6343C17.118 12.7886 15.7821 12.7886 14.975 13.6343L10.6053 18.2133C9.79822 19.0591 9.79822 20.4591 10.6053 21.3049L14.975 25.8839C15.3925 26.3214 15.9213 26.5256 16.4501 26.5256C16.9789 26.5256 17.5077 26.3214 17.9252 25.8839C18.7323 25.0381 18.7323 23.6382 17.9252 22.7924L17.2015 22.034H31.3403C34.9028 22.034 37.8252 25.0673 37.8252 28.8296C37.8252 32.592 34.9304 35.6252 31.3403 35.6252H17.6468C16.5057 35.6252 15.5594 36.6168 15.5594 37.8126C15.5594 39.0084 16.5057 40 17.6468 40H31.3403C37.2129 40 42 34.9835 42 28.8296C42 22.6757 37.2129 17.6883 31.3403 17.6883Z" fill="var(--fill-0, white)"/>
</g>
</svg>
