<svg viewBox="0 0 32.5411 32.5415" fill="none" xmlns="http://www.w3.org/2000/svg">
<g id="Group 18804">
<path id="Vector" d="M14.3006 18.2404L6.22949 26.3116M15.4537 8.43957C20.0658 3.82757 27.2721 1.23326 31.0195 1.52167C31.3077 5.26884 28.7134 12.4754 24.1014 17.0874C19.4892 21.6994 14.3006 25.1585 11.4181 26.3116L6.22949 21.1229C7.38254 18.2404 10.8417 13.0518 15.4537 8.43957Z" stroke="var(--stroke-0, white)" stroke-width="3" stroke-linecap="round" stroke-linejoin="round"/>
<path id="Vector_2" d="M23.6543 8.8877C24.2026 9.43623 24.2021 10.3259 23.6536 10.8744C23.1052 11.4225 22.2161 11.4225 21.6677 10.8744C21.1192 10.3259 21.1187 9.43623 21.667 8.8877C22.2155 8.33919 23.1058 8.33919 23.6543 8.8877Z" stroke="var(--stroke-0, white)" stroke-width="2.08276"/>
<path id="Vector_3" d="M20.0661 21.123L20.3859 24.6403C20.5447 26.3871 19.7561 28.0849 18.3193 29.0908L14.8775 31.5001L14.5893 24.8702M11.4184 12.4752L7.90116 12.1554C7.04304 12.0774 6.17954 12.2274 5.39803 12.5903C4.61651 12.9532 3.94472 13.5161 3.45061 14.222L1.04138 17.6639L7.67125 17.9521" stroke="var(--stroke-0, white)" stroke-width="2.08276" stroke-linecap="round" stroke-linejoin="round"/>
</g>
</svg>
