<svg preserveAspectRatio="none" width="100%" height="100%" overflow="visible" style="display: block;" viewBox="0 0 118.953 75.6414" fill="none" xmlns="http://www.w3.org/2000/svg">
<g id="Group 18731">
<path id="Vector 6" d="M105.573 2.64846H12.0916L4.03675 32.1607L2.0415 52.4661L5.29302 70.5644L48.6712 74.1588L59.3125 64.8259L71.3578 74.1588L113.258 69.4923L114.884 63.0602L115.844 46.3492L113.258 27.6203L110.524 13.1165L105.573 2.64846Z" fill="var(--fill-0, #858CDD)"/>
<path id="Vector" d="M109.585 1.5338C109.287 0.630302 108.321 0.0210757 107.207 0H11.7676C10.6529 0 9.6869 0.630302 9.38966 1.5338C-6.56222 48.6803 2.55311 70.3837 2.94951 71.287C3.29621 72.0434 4.11362 72.5896 5.07966 72.6526L48.675 75.6361C49.3932 75.6781 50.1117 75.4681 50.607 75.0269L59.4748 67.5683L68.3426 75.0269C68.8133 75.4051 69.4324 75.6361 70.0766 75.6361H70.2747L113.87 72.6526C114.836 72.5896 115.653 72.0643 116 71.287C116.396 70.3837 125.512 48.6803 109.585 1.5338ZM13.6253 4.20214H105.324C106.043 6.36624 106.687 8.44623 107.281 10.5051H11.6684C12.2629 8.44603 12.9069 6.36604 13.6253 4.20214ZM111.789 68.5769L71.0178 71.3503L64.8252 66.1399C74.9065 64.3961 81.1734 57.6519 81.1983 47.9452C81.1983 46.8737 80.3314 45.9072 79.0681 45.7811C77.5325 45.6131 76.2443 46.6005 76.2443 47.8611C76.2443 56.9794 69.9774 62.4 59.4751 62.4C48.9725 62.4 42.7058 56.9794 42.7058 47.9031C42.7058 46.7896 41.7149 45.8442 40.4021 45.76C38.9408 45.6759 37.7518 46.6425 37.7518 47.8611C37.7518 57.6308 44.0434 64.417 54.1249 66.1609L47.9323 71.3713L7.16012 68.5769C5.72337 63.9547 1.83462 46.4534 10.4792 14.7073H108.445C117.115 46.4743 113.201 63.9757 111.789 68.5769Z" fill="var(--fill-0, black)"/>
</g>
</svg>
