<svg preserveAspectRatio="none" width="100%" height="100%" overflow="visible" style="display: block;" viewBox="0 0 128.813 76.7114" fill="none" xmlns="http://www.w3.org/2000/svg">
<g id="Group 18730">
<path id="Vector 3" d="M100.154 62.818L124.881 48.4139L2.76587 49.5342L9.1677 52.255L25.4124 60.9775L54.5407 75.0615L73.9063 74.5814L79.6679 72.1807L100.154 62.818Z" fill="var(--fill-0, #FB66CE)" stroke="var(--stroke-0, black)"/>
<path id="Vector 2" d="M13.8882 13.2838L122.079 14.6442L125.68 48.0938L111.116 49.8543L91.9106 56.5762L81.5876 65.0586L74.2255 73.301L67.5836 74.9015L56.7805 75.4616L41.4961 60.8975L22.7708 51.0546L1.8848 48.734L6.20603 13.2838H13.8882Z" fill="var(--fill-0, #FF53CC)"/>
<path id="Vector" d="M128.799 48.812L124.496 12.4592C124.377 11.4496 123.516 10.6887 122.493 10.6887H80.6735C82.089 7.92738 81.6376 4.45664 79.3167 2.14974C76.4333 -0.716579 71.7415 -0.716579 68.8583 2.14974C67.4758 3.52388 65.7502 7.48625 64.4062 10.9908C63.0625 7.48625 61.3371 3.52413 59.9541 2.14974C57.0707 -0.716579 52.3788 -0.716579 49.4956 2.14974C47.1748 4.45664 46.7237 7.92738 48.1388 10.6887H6.31959C5.29689 10.6887 4.43596 11.4496 4.31645 12.4592L0.0138185 48.812C-0.055871 49.4012 0.140367 49.9906 0.549698 50.422C0.713984 50.5953 0.906448 50.7336 1.11577 50.8373L1.11476 50.8391L49.5676 74.9194C51.9262 76.0918 54.5671 76.7114 57.2043 76.7114H71.6079C74.2452 76.7114 76.8859 76.0918 79.2445 74.9194L127.697 50.8391L127.696 50.8368C127.906 50.7331 128.098 50.5948 128.262 50.4215C128.672 49.9906 128.868 49.4012 128.799 48.812ZM121.237 19.2426H67.9339C67.5181 18.8675 67.1258 18.5499 66.7774 18.2871C69.2258 17.4421 72.9737 16.0734 75.8255 14.6986H120.699L121.237 19.2426ZM71.7105 4.98504C72.3659 4.33361 73.2266 4.00802 74.0875 4.00802C74.9484 4.00802 75.8091 4.33361 76.4645 4.98504C77.7752 6.28791 77.7752 8.40752 76.4645 9.71039C75.6408 10.5291 71.8008 12.1851 67.7025 13.6943C69.2203 9.62061 70.8861 5.80453 71.7105 4.98504ZM52.3481 4.98504C53.0035 4.33361 53.8642 4.00802 54.7251 4.00802C55.5861 4.00802 56.4467 4.33361 57.1021 4.98504C57.9258 5.80378 59.5918 9.62061 61.1101 13.6943C57.012 12.1856 53.1728 10.5296 52.3481 9.71039C51.0379 8.40752 51.0379 6.28791 52.3481 4.98504ZM52.9872 14.6986C55.8389 16.0734 59.5868 17.4423 62.0352 18.2871C61.6868 18.5502 61.2943 18.8677 60.8787 19.2426H7.57551L8.1134 14.6986H52.9872ZM11.3928 51.4648C13.9729 51.7569 16.9418 52.2302 20.1053 52.993C28.5176 55.0213 39.8828 59.5431 47.8709 69.5939L11.3928 51.4648ZM58.4755 72.7023C56.3003 72.7023 54.2375 71.5835 52.9582 69.7097C46.0514 59.5911 35.0196 52.4633 21.056 49.0963C13.7869 47.3436 7.54305 47.0265 4.28953 47.0025L7.10077 23.252H57.6445C56.6535 25.0262 55.9355 27.2059 55.9355 29.8009C55.9355 30.9079 56.8385 31.8057 57.9525 31.8057C59.0665 31.8057 59.9695 30.9082 59.9695 29.8009C59.9695 26.9283 61.2374 24.7439 62.548 23.252H66.2652C67.5759 24.7437 68.8439 26.9278 68.8439 29.8009C68.8439 30.9079 69.7469 31.8057 70.8609 31.8057C71.9747 31.8057 72.8779 30.9082 72.8779 29.8009C72.8779 27.2059 72.1598 25.0262 71.1688 23.252H121.713L124.524 47.0025C121.27 47.026 115.026 47.3439 107.757 49.0963C93.7938 52.4631 82.7622 59.5908 75.8551 69.7097C74.5758 71.5837 72.5133 72.7023 70.3378 72.7023H58.4755ZM117.414 51.4675L80.9312 69.5989C87.332 61.5011 96.6211 55.929 108.592 53.0205C111.791 52.2435 114.8 51.7634 117.414 51.4675Z" fill="var(--fill-0, black)"/>
</g>
</svg>
