<svg viewBox="0 0 29.2205 25.2205" fill="none" xmlns="http://www.w3.org/2000/svg">
<path id="Icon" d="M25.6054 3.55521C24.9701 2.9386 24.2158 2.44946 23.3856 2.11574C22.5554 1.78201 21.6655 1.61025 20.7669 1.61025C19.8682 1.61025 18.9784 1.78201 18.1482 2.11574C17.318 2.44946 16.5637 2.9386 15.9284 3.55521L14.6099 4.83429L13.2914 3.55521C12.0082 2.31028 10.2677 1.61089 8.45294 1.61089C6.63814 1.61089 4.89768 2.31028 3.61442 3.55521C2.33117 4.80013 1.61025 6.48861 1.61025 8.2492C1.61025 10.0098 2.33117 11.6983 3.61442 12.9432L14.6099 23.6102L25.6054 12.9432C26.241 12.3269 26.7452 11.5951 27.0892 10.7897C27.4332 9.98428 27.6102 9.12101 27.6102 8.2492C27.6102 7.37738 27.4332 6.51411 27.0892 5.7087C26.7452 4.90329 26.241 4.17153 25.6054 3.55521Z" stroke="white" stroke-width="3.22049" stroke-linecap="round" stroke-linejoin="round"/>
</svg>
