<svg width="33" height="33" viewBox="0 0 33 33" fill="none" xmlns="http://www.w3.org/2000/svg">
  <path d="M5.877 22.694C.041 16.873.041 7.321 5.877 1.5M10.216 5.679a9.006 9.006 0 0 0-1.197 11.194" stroke="white" stroke-width="3" stroke-linecap="round" stroke-linejoin="round"/>
  <path d="M16.5 15.082a2.989 2.989 0 1 0 0-5.97 2.989 2.989 0 0 0 0 5.97Z" stroke="white" stroke-width="3" stroke-linecap="round" stroke-linejoin="round"/>
  <path d="M22.784 5.828a8.977 8.977 0 0 1 1.198 11.15M27.124 1.5a14.869 14.869 0 0 1 0 21.045M12.759 25.53h7.482M10.515 31.5 16.5 15.082 22.485 31.5" stroke="white" stroke-width="3" stroke-linecap="round" stroke-linejoin="round"/>
</svg>
