<svg viewBox="0 0 31.3018 34.6447" fill="none" xmlns="http://www.w3.org/2000/svg">
<g id="Group 18823">
<path id="Vector" fill-rule="evenodd" clip-rule="evenodd" d="M17.3226 0.528449C17.2178 0.38688 17.0858 0.26805 16.9344 0.179055C16.783 0.0900602 16.6154 0.0327253 16.4416 0.0104735C16.2678 -0.0117782 16.0913 0.00150958 15.9226 0.0495437C15.754 0.0975779 15.5967 0.179374 15.4601 0.290046C12.1272 2.98688 9.92883 6.85414 9.30588 11.1164C8.16471 10.2802 7.16372 9.26523 6.34091 8.11002C6.22932 7.95278 6.0847 7.82229 5.91736 7.72783C5.75002 7.63338 5.56407 7.57729 5.37276 7.56356C5.18146 7.54984 4.98951 7.57881 4.81058 7.64842C4.63165 7.71803 4.47016 7.82656 4.3376 7.96627C2.04096 10.3881 0.568776 13.484 0.134311 16.8057C-0.300153 20.1273 0.325659 23.5021 1.9211 26.4412C3.51653 29.3803 5.99875 31.7311 9.00817 33.1531C12.0176 34.5751 15.398 34.9945 18.6596 34.3504C21.9213 33.7063 24.8948 32.0323 27.1496 29.5707C29.4043 27.1092 30.8231 23.9881 31.2005 20.6594C31.5779 17.3307 30.8943 13.9673 29.2486 11.0564C27.603 8.14559 25.0808 5.83841 22.0474 4.46911C20.1827 3.55506 18.5625 2.20376 17.3226 0.528449ZM22.1691 21.5009C22.1685 22.4518 21.9632 23.3912 21.5675 24.2543C21.1717 25.1174 20.5949 25.8837 19.8769 26.5004C19.1588 27.117 18.3166 27.5692 17.4084 27.8259C16.5001 28.0826 15.5474 28.1376 14.616 27.9872C13.6846 27.8367 12.7967 27.4843 12.0135 26.9544C11.2303 26.4244 10.5705 25.7295 10.0796 24.9176C9.58863 24.1057 9.27828 23.196 9.16993 22.2515C9.06158 21.3069 9.1578 20.3499 9.45195 19.4464C10.544 20.2616 11.7996 20.8663 13.1612 21.1994C13.5317 18.8 14.7145 16.6037 16.5088 14.9834C18.0756 15.1937 19.5133 15.9706 20.5545 17.1694C21.5957 18.3683 22.1695 19.9075 22.1691 21.5009Z" fill="white"/>
<g id="Vector_2" filter="url(#filter0_iiiii_0_18)">
<path d="M6.38376 18.5518C6.39447 17.4744 6.74189 16.4265 7.37856 15.5514C8.01523 14.6763 8.91007 14.0166 9.94082 13.6624C10.9716 13.3083 12.0879 13.277 13.1374 13.5729C14.1868 13.8687 15.1181 14.4773 15.804 15.3154C16.5045 14.4598 17.4603 13.844 18.5356 13.5555C19.611 13.267 20.751 13.3206 21.7938 13.7085C22.8365 14.0965 23.7288 14.799 24.3438 15.7164C24.9588 16.6338 25.2653 17.7192 25.2196 18.8184C25.1206 22.1261 22.6792 24.6464 20.5801 26.2336C19.2754 27.2133 17.8666 28.0501 16.3786 28.7291C16.3462 28.7446 16.32 28.756 16.3001 28.7632L16.2782 28.7725L16.2719 28.7756H16.2687C16.122 28.8381 15.964 28.8705 15.8042 28.8708C15.6444 28.871 15.4862 28.8392 15.3393 28.7772H15.3361L15.3299 28.7725L15.3063 28.7632C15.1837 28.7105 15.0623 28.6552 14.9421 28.5974C13.5345 27.9307 12.2007 27.122 10.962 26.184C8.8393 24.5627 6.38219 21.9866 6.38219 18.6107L6.38376 18.5518Z" fill="#A11257"/>
</g>
</g>
<defs>
<filter id="filter0_iiiii_0_18" x="2.93547" y="11.074" width="28.0331" height="23.5413" filterUnits="userSpaceOnUse" color-interpolation-filters="sRGB">
<feFlood flood-opacity="0" result="BackgroundImageFix"/>
<feBlend mode="normal" in="SourceGraphic" in2="BackgroundImageFix" result="shape"/>
<feColorMatrix in="SourceAlpha" type="matrix" values="0 0 0 0 0 0 0 0 0 0 0 0 0 0 0 0 0 0 127 0" result="hardAlpha"/>
<feOffset dx="-2.29781" dy="-2.29781"/>
<feGaussianBlur stdDeviation="2.87226"/>
<feComposite in2="hardAlpha" operator="arithmetic" k2="-1" k3="1"/>
<feColorMatrix type="matrix" values="0 0 0 0 1 0 0 0 0 1 0 0 0 0 1 0 0 0 0.3 0"/>
<feBlend mode="soft-light" in2="shape" result="effect1_innerShadow_0_18"/>
<feColorMatrix in="SourceAlpha" type="matrix" values="0 0 0 0 0 0 0 0 0 0 0 0 0 0 0 0 0 0 127 0" result="hardAlpha"/>
<feOffset dx="-1.72336" dy="-1.72336"/>
<feGaussianBlur stdDeviation="1.14891"/>
<feComposite in2="hardAlpha" operator="arithmetic" k2="-1" k3="1"/>
<feColorMatrix type="matrix" values="0 0 0 0 1 0 0 0 0 1 0 0 0 0 1 0 0 0 0.4 0"/>
<feBlend mode="soft-light" in2="effect1_innerShadow_0_18" result="effect2_innerShadow_0_18"/>
<feColorMatrix in="SourceAlpha" type="matrix" values="0 0 0 0 0 0 0 0 0 0 0 0 0 0 0 0 0 0 127 0" result="hardAlpha"/>
<feOffset dx="2.29781" dy="2.29781"/>
<feGaussianBlur stdDeviation="1.14891"/>
<feComposite in2="hardAlpha" operator="arithmetic" k2="-1" k3="1"/>
<feColorMatrix type="matrix" values="0 0 0 0 0 0 0 0 0 0 0 0 0 0 0 0 0 0 0.3 0"/>
<feBlend mode="hard-light" in2="effect2_innerShadow_0_18" result="effect3_innerShadow_0_18"/>
<feColorMatrix in="SourceAlpha" type="matrix" values="0 0 0 0 0 0 0 0 0 0 0 0 0 0 0 0 0 0 127 0" result="hardAlpha"/>
<feOffset dx="5.74453" dy="5.74453"/>
<feGaussianBlur stdDeviation="4.59562"/>
<feComposite in2="hardAlpha" operator="arithmetic" k2="-1" k3="1"/>
<feColorMatrix type="matrix" values="0 0 0 0 0 0 0 0 0 0 0 0 0 0 0 0 0 0 0.15 0"/>
<feBlend mode="normal" in2="effect3_innerShadow_0_18" result="effect4_innerShadow_0_18"/>
<feColorMatrix in="SourceAlpha" type="matrix" values="0 0 0 0 0 0 0 0 0 0 0 0 0 0 0 0 0 0 127 0" result="hardAlpha"/>
<feOffset dx="-3.44672" dy="-2.29781"/>
<feGaussianBlur stdDeviation="3.44672"/>
<feComposite in2="hardAlpha" operator="arithmetic" k2="-1" k3="1"/>
<feColorMatrix type="matrix" values="0 0 0 0 1 0 0 0 0 1 0 0 0 0 1 0 0 0 0.3 0"/>
<feBlend mode="soft-light" in2="effect4_innerShadow_0_18" result="effect5_innerShadow_0_18"/>
</filter>
</defs>
</svg>
