<svg viewBox="0 0 31 25" fill="none" xmlns="http://www.w3.org/2000/svg">
<path id="Vector" d="M20.6735 4.34105H6.78775L7.67751 3.44989C8.45941 2.66674 8.45941 1.3705 7.67751 0.587359C6.8956 -0.195786 5.60141 -0.195786 4.8195 0.587359L0.586429 4.82715C-0.195476 5.61029 -0.195476 6.90653 0.586429 7.68968L4.8195 11.9296C5.22394 12.3346 5.73622 12.5237 6.24851 12.5237C6.76079 12.5237 7.27307 12.3346 7.67751 11.9296C8.45941 11.1464 8.45941 9.85019 7.67751 9.06704L6.97649 8.3648H20.6735C24.1246 8.3648 26.9557 11.1734 26.9557 14.6571C26.9557 18.1407 24.1513 20.9492 20.6735 20.9492H7.40788C6.30243 20.9492 5.38571 21.8674 5.38571 22.9746C5.38571 24.0818 6.30243 25 7.40788 25H20.6735C26.3625 25 31 20.3551 31 14.6571C31 8.95902 26.3625 4.34105 20.6735 4.34105Z" fill="white"/>
</svg>
